<svg width="24" height="29" viewBox="0 0 24 29" fill="none" xmlns="http://www.w3.org/2000/svg">
<path d="M23.9938 14.2712L23.2198 23.0471C23.0218 25.3178 19.3859 25.0054 19.5839 22.7737L20.1839 15.9394L17.7179 16.0677C18.3239 17.2226 18.6659 18.5169 18.6659 19.8894C18.6659 22.1879 17.6999 24.2801 16.1279 25.8311L13.7699 23.6385C17.2439 20.0846 14.5559 14.3103 9.32993 14.3103C7.77594 14.3103 6.35995 14.8626 5.29796 15.7608L2.93998 13.5683C4.25997 12.4134 5.94596 11.61 7.82394 11.3255L12.3419 6.54424L9.78593 5.16063L6.68995 7.727C4.88996 9.22219 2.45398 6.69487 4.25997 5.19411L8.33994 1.80762C8.92794 1.31666 9.78593 1.23855 10.4699 1.60677C10.4699 1.60677 18.8279 6.12023 18.8399 6.13139C19.8119 6.69487 20.0819 8.13985 19.2059 9.06598L15.7019 12.7761L22.0678 12.4469C23.1778 12.3855 24.0838 13.2503 23.9938 14.2712ZM20.0999 5.67948C21.7858 5.67948 23.1538 4.40746 23.1538 2.83974C23.1538 1.27203 21.7858 0 20.0999 0C18.4139 0 17.0459 1.27203 17.0459 2.83974C17.0459 4.40746 18.4139 5.67948 20.0999 5.67948ZM9.33593 25.4684C4.49997 25.4684 1.69199 20.4138 4.37397 16.7595L1.99199 14.5446C0.743995 16.0119 0 17.8697 0 19.8838C0 27.1756 9.04193 31.12 15.0839 26.7181L12.7019 24.5032C11.7419 25.1114 10.5839 25.4684 9.33593 25.4684Z" fill="black"/>
</svg>
