<svg width="25" height="25" viewBox="0 0 25 25" fill="none" xmlns="http://www.w3.org/2000/svg">
<path d="M8.12504 16.6623C8.03168 16.6623 7.93832 16.6789 7.84926 16.7139C7.34301 16.9132 6.81059 17.041 6.25005 17.041C5.6895 17.041 5.15708 16.9132 4.65044 16.7139C4.56138 16.6789 4.46841 16.6623 4.37505 16.6623C1.95084 16.6623 -0.0128275 19.0518 6.31045e-05 21.9933C0.00553184 23.2363 0.848889 24.2361 1.87506 24.2361H10.625C11.6512 24.2361 12.4946 23.2363 12.5 21.9933C12.5129 19.0518 10.5493 16.6623 8.12504 16.6623ZM6.25005 15.1475C8.32114 15.1475 10 13.113 10 10.6033C10 8.09352 8.32114 6.05902 6.25005 6.05902C4.17896 6.05902 2.50006 8.09352 2.50006 10.6033C2.50006 13.113 4.17896 15.1475 6.25005 15.1475ZM23.125 0H8.12504C7.09106 0 6.25005 1.05323 6.25005 2.3474V4.54426C7.16489 4.54426 8.01176 4.8652 8.75004 5.38685V3.02951H22.5V16.6623H20V13.6328H15V16.6623H12.0219C12.768 17.4523 13.3157 18.4956 13.5723 19.6918H23.125C24.159 19.6918 25 18.6386 25 17.3444V2.3474C25 1.05323 24.159 0 23.125 0Z" fill="black"/>
</svg>
