<svg width="29" height="38" viewBox="0 0 29 38" fill="none" xmlns="http://www.w3.org/2000/svg">
<path d="M26.9284 8.14022C25.7891 8.14022 24.8569 9.18682 24.8569 10.466V15.699C24.8569 16.0188 24.6238 16.2804 24.339 16.2804H23.3032C23.0184 16.2804 22.7853 16.0188 22.7853 15.699V4.65155C22.7853 3.37238 21.8532 2.32578 20.7138 2.32578C19.5744 2.32578 18.6423 3.37238 18.6423 4.65155V15.699C18.6423 16.0188 18.4092 16.2804 18.1244 16.2804H17.0886C16.8037 16.2804 16.5707 16.0188 16.5707 15.699V2.32578C16.5707 1.0466 15.6385 0 14.4992 0C13.3598 0 12.4276 1.0466 12.4276 2.32578V15.699C12.4276 16.0188 12.1946 16.2804 11.9097 16.2804H10.8739C10.5891 16.2804 10.3561 16.0188 10.3561 15.699V4.65155C10.3561 3.37238 9.42385 2.32578 8.2845 2.32578C7.14515 2.32578 6.21295 3.37238 6.21295 4.65155V22.1676L4.68518 19.8054C3.84362 18.5045 2.22522 18.221 1.06644 19.1659C-0.0923297 20.1107 -0.3448 21.9277 0.496767 23.2287L8.6276 35.7806C9.21022 36.6819 10.1489 37.2197 11.1394 37.2197H23.9312C25.3748 37.2197 26.6242 36.1077 26.9543 34.5305L28.6698 26.3394C28.877 25.3437 28.9871 24.2826 29 23.265V10.466C29 9.18682 28.0678 8.14022 26.9284 8.14022ZM11.3918 30.2351C10.8221 30.2351 10.3561 29.7118 10.3561 29.0722C10.3561 28.4326 10.8221 27.9093 11.3918 27.9093C11.9615 27.9093 12.4276 28.4326 12.4276 29.0722C12.4276 29.7118 11.9615 30.2351 11.3918 30.2351ZM11.3918 23.2578C10.8221 23.2578 10.3561 22.7345 10.3561 22.0949C10.3561 21.4553 10.8221 20.932 11.3918 20.932C11.9615 20.932 12.4276 21.4553 12.4276 22.0949C12.4276 22.7345 11.9615 23.2578 11.3918 23.2578ZM15.5349 32.5609C14.9652 32.5609 14.4992 32.0376 14.4992 31.398C14.4992 30.7584 14.9652 30.2351 15.5349 30.2351C16.1046 30.2351 16.5707 30.7584 16.5707 31.398C16.5707 32.0376 16.1046 32.5609 15.5349 32.5609ZM15.5349 25.5835C14.9652 25.5835 14.4992 25.0602 14.4992 24.4207C14.4992 23.7811 14.9652 23.2578 15.5349 23.2578C16.1046 23.2578 16.5707 23.7811 16.5707 24.4207C16.5707 25.0602 16.1046 25.5835 15.5349 25.5835ZM19.678 27.9093C19.1083 27.9093 18.6423 27.386 18.6423 26.7464C18.6423 26.1068 19.1083 25.5835 19.678 25.5835C20.2477 25.5835 20.7138 26.1068 20.7138 26.7464C20.7138 27.386 20.2477 27.9093 19.678 27.9093ZM21.7496 32.5609C21.1799 32.5609 20.7138 32.0376 20.7138 31.398C20.7138 30.7584 21.1799 30.2351 21.7496 30.2351C22.3193 30.2351 22.7853 30.7584 22.7853 31.398C22.7853 32.0376 22.3193 32.5609 21.7496 32.5609ZM23.8211 23.2578C23.2514 23.2578 22.7853 22.7345 22.7853 22.0949C22.7853 21.4553 23.2514 20.932 23.8211 20.932C24.3908 20.932 24.8569 21.4553 24.8569 22.0949C24.8569 22.7345 24.3908 23.2578 23.8211 23.2578Z" fill="black"/>
</svg>
