<svg width="30" height="26" viewBox="0 0 30 26" fill="none" xmlns="http://www.w3.org/2000/svg">
<path d="M9.54639 11.4205L10.0633 13.4244H8.56295L9.0927 11.4207C9.16752 11.1317 9.24803 10.7674 9.31957 10.4242C9.39106 10.7674 9.47156 11.1317 9.54639 11.4205ZM19.3007 9.32226H18.4498V15.7795H19.3007C21.0454 15.7795 22.0063 14.6239 22.0063 12.5257C22.0063 10.4182 20.9815 9.32226 19.3007 9.32226ZM30 3.13771V21.9639C30 23.6969 28.7408 25.1017 27.1875 25.1017H2.8125C1.25918 25.1017 0 23.6969 0 21.9639V3.13771C0 1.40478 1.25918 0 2.8125 0H27.1875C28.7408 0 30 1.40478 30 3.13771ZM14.3824 17.7894L11.0368 6.80745C10.9896 6.65231 10.9 6.51758 10.7806 6.42216C10.6612 6.32674 10.518 6.27542 10.3711 6.27541H8.26793C8.12106 6.27542 7.97787 6.32674 7.85847 6.42216C7.73907 6.51758 7.64945 6.65231 7.60219 6.80745L4.25666 17.7894C4.10174 18.2982 4.44076 18.8262 4.9224 18.8262H6.62941C6.7821 18.8262 6.93063 18.7708 7.05257 18.6683C7.17451 18.5657 7.26322 18.4217 7.30529 18.258L7.80768 16.3031H10.8175L11.3327 18.2626C11.3754 18.4253 11.4643 18.5681 11.5859 18.6697C11.7076 18.7713 11.8554 18.8262 12.0074 18.8262H13.7167C14.1983 18.8262 14.5373 18.2982 14.3824 17.7894ZM25.2047 12.5256C25.2047 8.67033 22.9829 6.27541 19.4062 6.27541H16.045C15.6567 6.27541 15.3418 6.62664 15.3418 7.05984V18.0418C15.3418 18.475 15.6567 18.8262 16.045 18.8262H19.4062C22.9829 18.8262 25.2047 16.412 25.2047 12.5256Z" fill="black"/>
</svg>
